<?xml version="1.0" encoding="utf-8"?>
<!-- Svg Vector Icons : http://www.onlinewebfonts.com/icon -->
<!DOCTYPE svg PUBLIC "-//W3C//DTD SVG 1.1//EN" "http://www.w3.org/Graphics/SVG/1.1/DTD/svg11.dtd">
<svg version="1.1" xmlns="http://www.w3.org/2000/svg" xmlns:xlink="http://www.w3.org/1999/xlink" x="0px" y="0px" viewBox="0 0 256 256" enable-background="new 0 0 256 256" xml:space="preserve">
<metadata> Svg Vector Icons : http://www.onlinewebfonts.com/icon </metadata>
<g><g><g><path fill="#000000" d="M10,13.7v3.7h24.9h24.9l0.8,2.2c2.3,6.6,13.1,38.9,13.1,39.1c0,0.1-8.5,0.2-18.9,0.2c-17.7,0-18.9,0-18.9,0.8c0,0.5,8,26.2,17.7,57.3l17.6,56.5h67.1h67.1l2.4-6.7c1.3-3.7,10.4-29.2,20.2-56.7c9.8-27.5,17.9-50.3,18.1-50.6c0.2-0.5-4.5-0.6-24.8-0.6h-25L159,41.6c-20.5-9.5-37.4-17.3-37.7-17.3c-0.3,0-3.2,7.8-6.6,17.3l-6.2,17.3H95H81.6l-8.3-24.4L65.1,10H37.6H10V13.7z M152,46.5l26.1,12.1l-30.7,0.1c-16.8,0-30.7,0-30.9-0.1c-0.4-0.4,8.3-24.2,8.9-24.2C125.8,34.4,137.7,39.9,152,46.5z M235.5,66.6c0,0.2-8,22.7-17.7,49.9l-17.7,49.6l-61.6,0.1l-61.6,0.1l-0.5-1c-0.3-0.6-7.2-22.7-15.5-49.3c-8.3-26.5-15.1-48.6-15.3-49c-0.2-0.7,4.5-0.8,94.8-0.8C192.8,66.2,235.5,66.4,235.5,66.6z"/><path fill="#000000" d="M88.6,184.1c-6.4,1.6-13.6,6.4-17.5,11.9c-7.4,10.4-8.2,23.4-2,34.4c2,3.6,8.2,9.6,11.9,11.7c5.2,2.8,9.1,3.8,15.5,3.8c6.4,0,9.1-0.7,14.8-3.6c6.7-3.5,12.8-10.7,15-17.8c3.6-11.8,0.9-23.1-7.9-31.9c-3.1-3.2-4.7-4.3-7.8-5.9c-2.2-1.1-5.2-2.3-6.7-2.6C100.4,183.2,92.4,183.2,88.6,184.1z M103.2,191.7c5.6,1.7,10.1,5,13.2,9.6c6.1,9.1,5.1,21.6-2.4,29.5c-4.5,4.8-9.5,7.2-15.7,7.8C83,239.9,70.1,226,72.6,211c1.6-9.2,8.6-17.2,17.2-19.5C93.5,190.5,99.7,190.6,103.2,191.7z"/><path fill="#000000" d="M172.6,184.1c-9.9,2.4-19,10.8-22.2,20.6c-5.4,16.8,3.6,34.5,20.3,39.8c20.2,6.4,40.9-8.7,40.8-30c0-5.3-0.9-9.2-3.3-14.1c-1.6-3.1-2.7-4.7-5.9-7.8c-4.5-4.5-8.5-6.9-14.1-8.3C183.9,183.2,176.7,183.1,172.6,184.1z M186.7,191.5c10.5,3.1,17.5,12.3,17.5,23.2c0,6.6-2.2,11.9-6.9,16.7c-3.4,3.4-7.1,5.6-11.6,6.6c-14.9,3.5-29.4-8.1-29.4-23.5c0-6.2,2.2-11.5,6.7-16.3c4.8-5.1,10-7.4,17.1-7.4C182.5,190.8,185.2,191,186.7,191.5z"/></g></g></g>
</svg>